<svg id="_1" data-name="1" xmlns="http://www.w3.org/2000/svg" xmlns:xlink="http://www.w3.org/1999/xlink" viewBox="0 0 347.58 162.39"><defs><style>.cls-1{fill:url(#GradientFill_1);}.cls-2{fill:#fff;}.cls-2,.cls-6{fill-rule:evenodd;}.cls-3{fill:url(#GradientFill_1-2);}.cls-4{fill:url(#GradientFill_1-3);}.cls-5{fill:url(#GradientFill_1-4);}.cls-6,.cls-7{fill:#1b1b1b;}</style><linearGradient id="GradientFill_1" x1="16.37" y1="89.89" x2="122.44" y2="89.89" gradientUnits="userSpaceOnUse"><stop offset="0" stop-color="#e30033"/><stop offset="1" stop-color="#da047c"/></linearGradient><linearGradient id="GradientFill_1-2" x1="98.54" y1="148.7" x2="125.93" y2="148.7" xlink:href="#GradientFill_1"/><linearGradient id="GradientFill_1-3" x1="85.68" y1="21.01" x2="127.7" y2="21.01" xlink:href="#GradientFill_1"/><linearGradient id="GradientFill_1-4" x1="0" y1="122.48" x2="16.21" y2="122.48" xlink:href="#GradientFill_1"/></defs><title>eskiz</title><circle class="cls-1" cx="69.4" cy="89.89" r="53.04"/><path class="cls-2" d="M222.5,441.15h-16c-2.47,6.11-6.22,8.81-12.33,8.81-8.93,0-14-5.64-14.21-16.09h43.46v-1.64c0-21.26-11.63-34.65-29.95-34.65-17.62,0-30.42,13.62-30.42,32.42,0,19,12.33,31.71,31,31.71,13.74,0,24.66-7.4,28.42-20.55Zm-16-17.85H180c.94-8.46,6.11-13.62,13.51-13.62C201.83,409.67,205.82,415.9,206.52,423.3Z" transform="translate(-123.85 -339.75)"/><circle class="cls-3" cx="112.24" cy="148.7" r="13.69"/><circle class="cls-4" cx="106.69" cy="21.01" r="21.01"/><circle class="cls-5" cx="8.11" cy="122.47" r="8.11"/><path class="cls-6" d="M309.31,397.49v7.08H278.42v21.34h25v6.81h-25v21.92h30.94l0,7.08H269.72V397.49Zm36,26.32a1.77,1.77,0,0,1-1.66,1,3.13,3.13,0,0,1-1.52-.49c-.57-.33-1.25-.7-2.08-1.11a19.62,19.62,0,0,0-2.94-1.12,14,14,0,0,0-4-.51,11.92,11.92,0,0,0-3.63.51,8.67,8.67,0,0,0-2.75,1.42,6.21,6.21,0,0,0-1.75,2.08,5.63,5.63,0,0,0-.61,2.58,4.3,4.3,0,0,0,1,2.91,8.73,8.73,0,0,0,2.66,2,23.25,23.25,0,0,0,3.77,1.49c1.4.43,2.85.9,4.33,1.39s2.91,1,4.32,1.64a15.72,15.72,0,0,1,3.77,2.24,10.27,10.27,0,0,1,2.68,3.29,10.13,10.13,0,0,1,1,4.69,14.8,14.8,0,0,1-1.12,5.8,12.65,12.65,0,0,1-3.32,4.62,16,16,0,0,1-5.38,3.08,22.11,22.11,0,0,1-7.35,1.12,22.93,22.93,0,0,1-8.61-1.55,21.8,21.8,0,0,1-6.55-4l1.88-3a2.74,2.74,0,0,1,.85-.9,2.3,2.3,0,0,1,1.26-.31,3,3,0,0,1,1.7.63c.6.42,1.33.88,2.18,1.39a16.5,16.5,0,0,0,3.11,1.39,14.3,14.3,0,0,0,4.57.63,12.47,12.47,0,0,0,4.08-.61,8.55,8.55,0,0,0,2.91-1.63,6.49,6.49,0,0,0,1.73-2.38,7.39,7.39,0,0,0,.55-2.87,4.78,4.78,0,0,0-1-3.12,8.52,8.52,0,0,0-2.68-2.11,21.65,21.65,0,0,0-3.78-1.52c-1.42-.43-2.87-.88-4.35-1.36s-2.93-1-4.35-1.64a15.34,15.34,0,0,1-3.8-2.3,10.47,10.47,0,0,1-2.66-3.44,11.06,11.06,0,0,1-1-4.95,12.13,12.13,0,0,1,1.08-5,12.28,12.28,0,0,1,3.14-4.21,15.45,15.45,0,0,1,5.07-2.88,20.27,20.27,0,0,1,6.86-1.08A21.73,21.73,0,0,1,341,417a19,19,0,0,1,6.16,3.89l-1.79,2.91Zm20.4-28.11v38.87h2.06a4,4,0,0,0,1.51-.25,3.61,3.61,0,0,0,1.27-1L385,417.94a5.46,5.46,0,0,1,1.33-1.2,3.51,3.51,0,0,1,1.85-.42h7.22l-16.72,17.8a10.12,10.12,0,0,1-2.6,2.38,8.28,8.28,0,0,1,1.46,1.23,11.46,11.46,0,0,1,1.23,1.6l17.76,22.42h-7.13a4.21,4.21,0,0,1-1.76-.34,3,3,0,0,1-1.28-1.22l-14.93-18.61a3.58,3.58,0,0,0-1.32-1.24,5.21,5.21,0,0,0-2-.28h-2.29v21.7h-8v-66Zm46,20.62v45.42h-8V416.32Zm1.7-14.26a5,5,0,0,1-.46,2.17A6.26,6.26,0,0,1,411.7,406a5.78,5.78,0,0,1-1.84,1.24,5.65,5.65,0,0,1-2.23.45,5.26,5.26,0,0,1-2.17-.45,5.7,5.7,0,0,1-1.78-1.24,6.14,6.14,0,0,1-1.21-1.79,5.26,5.26,0,0,1-.45-2.17,5.65,5.65,0,0,1,.45-2.23,6,6,0,0,1,1.21-1.84,5.65,5.65,0,0,1,1.78-1.22,5.25,5.25,0,0,1,2.17-.45,5.63,5.63,0,0,1,2.23.45A5.73,5.73,0,0,1,411.7,398a6.1,6.1,0,0,1,1.26,1.84,5.4,5.4,0,0,1,.46,2.23Zm42.73,17.67a4.83,4.83,0,0,1-.28,1.66,4.51,4.51,0,0,1-.79,1.39l-24.62,32.73H455.3v6.23H421.09v-3.32a4.33,4.33,0,0,1,.27-1.38,5.4,5.4,0,0,1,.81-1.49l24.75-33H422.48v-6.28h33.67Z" transform="translate(-123.85 -339.75)"/><path class="cls-6" d="M456.15,474.59h-.84l-3,7.72c-.14.33-.23.64-.47,1.35-.25-.76-.29-.88-.45-1.25l-3.3-7.82h-.88l4.23,10c-.21.55-.68,1.62-.68,1.62a1.74,1.74,0,0,1-1.81,1.31,2.87,2.87,0,0,1-.64-.06v.7c.18,0,.59,0,.76,0,1.79,0,2.14-1,2.73-2.55l4.31-11Zm-17,0h-.76v10h.78v-5.17a5.17,5.17,0,0,1,.57-2.75,3.26,3.26,0,0,1,2.93-1.64c2.28,0,2.91,1.48,2.91,3.39v6.16h.78V478c0-2.28-1.27-3.71-3.51-3.71a3.71,3.71,0,0,0-3.69,2.48v-2.2Zm-3.88,4.33v1.76a3.51,3.51,0,0,1-3.72,3.49c-1.6,0-2.59-.84-2.59-2.18a1.92,1.92,0,0,1,1.17-1.83c1.42-.64,3-.41,4.46-.86a1.3,1.3,0,0,0,.68-.37Zm2,5a1.77,1.77,0,0,1-.51.08c-.72,0-.72-.49-.72-1.07v-5.17a3.23,3.23,0,0,0-.57-2.32,3.87,3.87,0,0,0-3-1.07c-2.34,0-3.7,1.17-3.84,3.33h.74a2.68,2.68,0,0,1,3-2.67c1.83,0,2.83.8,2.83,2.3a2.36,2.36,0,0,1-.14,1c-.27.43-.57.47-3.18.68-1.91.16-3.82.8-3.82,3.06,0,1.75,1.23,2.79,3.3,2.79a3.94,3.94,0,0,0,3.9-2.4v.49c0,1.29.27,1.68,1.15,1.68a2.13,2.13,0,0,0,.8-.12v-.62ZM422.35,475c2.26,0,3.69,1.79,3.69,4.66s-1.44,4.62-3.67,4.62c-2.63,0-3.71-2.28-3.71-4.6,0-2.94,1.36-4.68,3.69-4.68Zm-3.69-.39h-.74v13.57h.78v-5.85a3.59,3.59,0,0,0,3.7,2.61c2.67,0,4.45-2.11,4.45-5.29s-1.76-5.32-4.47-5.32a3.69,3.69,0,0,0-3.72,2.65v-2.38Zm-15.58,0h-.74v10h.78V478.9c0-2.4,1.15-3.86,3.06-3.86a2.25,2.25,0,0,1,2.13,1.19,3.6,3.6,0,0,1,.29,1.75v6.59h.78v-6.14a3.59,3.59,0,0,1,.9-2.59,2.75,2.75,0,0,1,2-.8c1.85,0,2.53,1.17,2.53,2.79v6.75h.78v-7a3,3,0,0,0-3.16-3.22,3.36,3.36,0,0,0-3.24,2.14,2.78,2.78,0,0,0-2.91-2.14,3.41,3.41,0,0,0-3.26,2.3v-2ZM396,475c2.3,0,3.8,1.83,3.8,4.66s-1.48,4.54-3.78,4.54-3.86-1.79-3.86-4.6,1.54-4.6,3.84-4.6Zm0-.68c-2.81,0-4.66,2.11-4.66,5.28s1.81,5.29,4.64,5.29,4.62-2,4.62-5.23-1.81-5.34-4.6-5.34Zm-5.87,4.89h-.8c-.33,2.81-2.15,5-5.19,5-3.34,0-5.54-2.59-5.54-6.49s2.24-6.53,5.58-6.53a4.71,4.71,0,0,1,4.91,3.74h.82c-.31-2.83-3-4.5-5.69-4.5-3.86,0-6.45,2.94-6.45,7.31s2.54,7.22,6.36,7.22A5.85,5.85,0,0,0,390.12,479.19Z" transform="translate(-123.85 -339.75)"/><polygon class="cls-6" points="247.16 130.94 236.47 130.94 236.47 131.68 241.41 131.68 241.41 144.83 242.24 144.83 242.24 131.68 247.16 131.68 247.16 130.94"/><rect class="cls-7" x="233.76" y="130.94" width="0.84" height="13.89"/><path class="cls-6" d="M465.69,396.34a5.73,5.73,0,1,0,5.73,5.73,5.74,5.74,0,0,0-5.73-5.73Zm0,9.89a4.16,4.16,0,1,1,4.16-4.16,4.16,4.16,0,0,1-4.16,4.16Zm2.08-4.9a1.79,1.79,0,0,1-.82,1.58l1.3,1.79h-1.38l-1.07-1.46h-1v1.46h-1.11v-5.24h1.94a1.86,1.86,0,0,1,2.12,1.88Zm-2.12.8h-.83v-1.56h.83c1,0,1,.58,1,.77S466.67,402.12,465.66,402.12Z" transform="translate(-123.85 -339.75)"/></svg>